<?xml version="1.0" encoding="UTF-8" standalone="no"?>
<svg
   xmlns:dc="http://purl.org/dc/elements/1.1/"
   xmlns:cc="http://creativecommons.org/ns#"
   xmlns:rdf="http://www.w3.org/1999/02/22-rdf-syntax-ns#"
   xmlns:svg="http://www.w3.org/2000/svg"
   xmlns="http://www.w3.org/2000/svg"
   xmlns:sodipodi="http://sodipodi.sourceforge.net/DTD/sodipodi-0.dtd"
   xmlns:inkscape="http://www.inkscape.org/namespaces/inkscape"
   version="1.1"
   id="svg2"
   width="420"
   height="250"
   viewBox="0 0 420 250"
   sodipodi:docname="little-presentation.svg"
   inkscape:version="1.0.1 (3bc2e813f5, 2020-09-07)">
  <metadata
     id="metadata66">
    <rdf:RDF>
      <cc:Work
         rdf:about="">
        <dc:format>image/svg+xml</dc:format>
        <dc:type
           rdf:resource="http://purl.org/dc/dcmitype/StillImage" />
        <dc:title />
      </cc:Work>
    </rdf:RDF>
  </metadata>
  <defs
     id="defs6" />
  <sodipodi:namedview
     id="namedview4"
     pagecolor="#ffffff"
     bordercolor="#000000"
     borderopacity="0.25"
     inkscape:showpageshadow="2"
     inkscape:pageopacity="0.0"
     inkscape:pagecheckerboard="0"
     inkscape:deskcolor="#d1d1d1"
     inkscape:document-rotation="0"
     showgrid="false"
     inkscape:snap-global="false"
     inkscape:zoom="1.4868149"
     inkscape:cx="114.58869"
     inkscape:cy="75.727914"
     inkscape:window-width="1920"
     inkscape:window-height="1017"
     inkscape:window-x="-8"
     inkscape:window-y="-8"
     inkscape:window-maximized="1"
     inkscape:current-layer="g8" />
  <g
     id="g8"
     inkscape:groupmode="layer"
     inkscape:label="ink_ext_XXXXXX"
     transform="matrix(1.3333333,0,0,-1.3333333,0,792.8)">
    <path
       d="M 72.671714,442.76972 H 255.39391 V 576.16533 H 72.671714 V 442.76972"
       style="fill:#ffffff;fill-opacity:1;fill-rule:evenodd;stroke:#666666;stroke-width:0.774528;stroke-miterlimit:4;stroke-dasharray:none"
       id="path64" />
    <path
       d="m 67.48544,581.479 h 192.33551 v -8.10835 H 67.48544 Z m 0,-134.39528 h 192.33551 v -8.10787 H 67.48544 v 8.10787 0"
       style="fill:#7cc0c0;fill-opacity:1;fill-rule:evenodd;stroke:none;stroke-width:0.0618299"
       id="path66" />
    <path
       d="M 42.985144,454.04575 25.693997,439.58302 c -1.362459,3.84278 -7.814934,12.58728 -1.897995,26.85987 l 8.508833,11.37264 c 0.692426,0.47565 1.012591,1.29912 0.810999,2.08524 -1.266912,4.90917 -5.998289,8.31289 -11.347844,8.16338 -1.169733,-0.033 -2.336618,-0.118 -3.496938,-0.25544 C 7.361977,486.51741 7.091313,471.90488 3.14543,462.21629 2.579292,446.82737 10.698447,442.81276 24.978967,428.68719 l 18.006177,25.35856"
       style="fill:#1f214b;fill-opacity:1;fill-rule:evenodd;stroke:none;stroke-width:0.0353962"
       id="path72"
       sodipodi:nodetypes="cccccccccc" />
    <path
       d="M 61.76566,426.98089 V 405.73854 H 18.04711 c 1.904862,8.78494 5.873048,16.5498 11.868501,23.31142 l 31.850049,-2.06907"
       style="fill:#1f214b;fill-opacity:1;fill-rule:evenodd;stroke:none;stroke-width:0.0353962"
       id="path80" />
    <path
       d="M 58.73807,450.84326 V 426.4282 c -1.86735,-5.30234 -13.87464,-5.9135 -25.372292,2.39717 l -0.197805,67.12332 2.996993,5.07087 1.093957,4.3782 10.446327,-0.41375 1.17081,-3.96445 10.88274,-12.24314 -1.02073,-37.93316"
       style="fill:#c8edef;fill-opacity:1;fill-rule:evenodd;stroke:none;stroke-width:0.0353962"
       id="path82" />
    <path
       d="M 58.73807,450.84326 V 426.4282 c -1.86735,-5.30234 -13.87464,-5.9135 -25.372292,2.39717 l -0.08014,27.1211 4.637021,12.65826 c 6.616561,-11.61547 1.422541,-35.86134 10.986191,-42.72786 6.75062,8.06614 0.54862,22.92003 9.82922,37.45304 l 0.32494,-0.39827 -0.32494,-12.08838"
       style="fill:#a0d9d8;fill-opacity:1;fill-rule:evenodd;stroke:none;stroke-width:0.0353962"
       id="path84" />
    <path
       d="m 47.48521,496.3731 c 3.85198,-8.21574 5.87961,-17.09183 5.95283,-26.08072 0.0758,-9.252 0.78322,-18.48989 2.11834,-27.65695 l -6.50145,-9.86246 -5.771415,9.7249 0.4386,6.13841 c 0.589059,8.24911 1.406515,16.48171 2.452395,24.69023 0.98503,7.7339 0.92602,15.54794 -0.17013,23.25604 l -1.754045,0.94339 0.01859,4.29325 1.424365,0.15511 2.57551,-3.75878 -0.78358,-1.84242"
       style="fill:#2ca089;fill-opacity:1;fill-rule:evenodd;stroke:none;stroke-width:0.0353962"
       id="path86" />
    <path
       d="m 122.34822,458.40044 21.44449,20.29232 0.63264,-0.50093 -18.9356,-21.44214 -3.14153,1.65075"
       style="fill:#612a2e;fill-opacity:1;fill-rule:evenodd;stroke:none;stroke-width:0.0353962"
       id="path70" />
    <path
       d="m 71.285174,485.31109 11.300176,-18.72792 2.99016,-0.31859 1.227381,-2.17169 24.485149,-3.55617 c 3.50838,-0.509 1.43276,-12.95701 -3.85496,-14.57342 -7.40736,-2.26507 -21.435122,-0.66576 -30.152656,0.9596 -6.067615,1.13027 -17.977523,18.26872 -20.774444,23.24288 l 14.779194,15.14531"
       style="fill:#2f3387;fill-opacity:1;fill-rule:evenodd;stroke:none;stroke-width:0.0353962"
       id="path76" />
    <path
       d="m 72.132987,450.09305 c -5.122658,4.58916 -11.172819,12.97413 -14.234608,17.77755 l 12.47816,13.09885 -0.817476,-4.48358 c -1.612706,-8.84417 -0.700048,-17.94864 2.573924,-26.39282"
       style="fill:#1f214b;fill-opacity:1;fill-rule:evenodd;stroke:none;stroke-width:0.0353962"
       id="path78" />
    <path
       d="m 111.01259,459.15547 1.49088,-0.21675 c 2.59001,-0.37631 1.05795,-9.5701 -2.84762,-10.76426 -0.42596,-0.13013 -0.8808,-0.24292 -1.36056,-0.33898 -0.67991,3.98717 0.28462,8.05133 2.7173,11.31999"
       style="fill:#c8edef;fill-opacity:1;fill-rule:evenodd;stroke:none;stroke-width:0.0353962"
       id="path92" />
    <path
       d="m 123.13879,459.5259 4.60277,-1.39344 c 0.71216,-0.2153 1.15998,-0.95299 1.03995,-1.71356 -0.12054,-0.76117 -0.76991,-1.30365 -1.50963,-1.26159 l -2.02987,-4.30121 c -0.41441,-0.87821 -1.22109,-1.48264 -2.1538,-1.61425 -2.30567,-0.32294 -4.65253,-0.17479 -6.90915,0.4386 -1.52896,0.41489 -2.97281,1.11856 -4.26058,2.07692 -1.03899,0.77198 -1.54249,2.10974 -1.28159,3.40535 0.26038,1.29502 1.23514,2.30067 2.48141,2.55994 l 5.42788,1.33451 c 1.056,0.25972 2.04361,0.75605 2.8947,1.45501 0.33137,0.27182 0.78929,0.3094 1.16031,0.0939 0.3711,-0.21517 0.58283,-0.64118 0.5376,-1.08016"
       style="fill:#f5826b;fill-opacity:1;fill-rule:evenodd;stroke:none;stroke-width:0.0353962"
       id="path122" />
    <path
       d="m 48.87606,501.01956 c 8.96185,-4.70046 14.3085,-9.3256 22.35343,-15.44854 l -0.29179,-3.72508 c -1.21052,-15.43306 -4.39951,-30.67181 -9.49662,-45.38022 l 1.75296,-12.41475 -7.01291,-6.89712 -1.16864,6.06962 c -2.37006,12.30505 -2.46878,24.90587 -0.29216,37.2429 2.47679,14.04084 2.09538,28.45244 -5.84427,40.55319 z m -12.711094,0 c -14.73624,-4.28184 -21.958805,-9.27092 -25.088293,-17.78308 l 8.046664,-12.10594 c 11.083769,-12.03737 4.564583,-22.91238 6.154523,-34.66482 l -0.418933,-12.41475 7.754232,-6.89712 c 18.308021,29.62007 1.362804,58.54336 3.551807,83.86571 v 0"
       style="fill:#2f3387;fill-opacity:1;fill-rule:evenodd;stroke:none;stroke-width:0.0353962"
       id="path88"
       sodipodi:nodetypes="cccccccccccccccsc" />
    <path
       d="M 44.013912,405.73854 H 18.04711 c 0.461917,2.1296 1.044775,4.19901 1.74858,6.20859 10.190225,3.4403 20.652938,3.21468 25.21054,-1.86203 l -0.992318,-4.34656"
       style="fill:#1f214b;fill-opacity:1;fill-rule:evenodd;stroke:none;stroke-width:0.0353962"
       id="path94" />
    <path
       d="m 47.47283,504.03168 -2.74309,-1.29902 -7.192498,1.31518 c 0.373025,2.95125 0.433863,4.55911 0.271758,6.15975 l -1.846941,8.15143 11.957381,-3.09845 c -3.01229,-4.86004 -2.0564,-7.69159 -0.44661,-11.22889"
       style="fill:#ec7960;fill-opacity:1;fill-rule:evenodd;stroke:none;stroke-width:0.0353962"
       id="path100" />
    <path
       d="m 57.14248,531.38562 c 1.78829,-8.33474 2.35695,-21.81808 -4.71534,-27.2009 -11.55412,0.21944 -19.414721,16.73793 -18.666839,24.67716 l 23.382179,2.52374"
       style="fill:#f5826b;fill-opacity:1;fill-rule:evenodd;stroke:none;stroke-width:0.0353962"
       id="path102" />
    <path
       d="m 54.5422,510.9668 c -0.30783,-1.14475 -0.94132,-2.15961 -2.06807,-2.7901 -2.30266,0.0323 -4.23193,1.27439 -5.5368,2.7901 h 7.60487"
       style="fill:#ffffff;fill-opacity:1;fill-rule:evenodd;stroke:none;stroke-width:0.030341"
       id="path104" />
    <path
       d="m 58.03353,536.87918 c -2.41413,2.20904 -6.13788,2.51824 -8.92323,0.74012 -4.610792,0.48701 -13.084491,1.60168 -14.399568,-3.57443 -10.00517,-6.44826 -0.944104,-18.51984 3.098268,-23.83728 l -0.938405,10.09599 4.619529,0.67685 -2.428337,5.03855 c 5.536803,-0.76456 13.656063,-1.558 18.122223,2.48452 l 0.84005,-2.6933 c 1.54385,3.84822 3.99551,7.42128 0.009,11.06898"
       style="fill:#1b1919;fill-opacity:1;fill-rule:evenodd;stroke:none;stroke-width:0.0353962"
       id="path106"
       sodipodi:nodetypes="cccccccccc" />
    <path
       d="m 35.653142,522.78089 c -1.403603,-0.50317 -1.745301,-2.89105 -0.763185,-5.33294 0.982124,-2.44223 2.916853,-4.01363 4.320821,-3.51012 1.403597,0.50317 1.745301,2.89071 0.762821,5.33259 -0.982124,2.44189 -2.916488,4.01363 -4.320457,3.51047"
       style="fill:#f5826b;fill-opacity:1;fill-rule:evenodd;stroke:none;stroke-width:0.0353962"
       id="path108" />
    <path
       d="m 50.26873,522.36302 c -2.45274,0.0375 -4.09787,-0.01 -5.64973,-1.68181 0.47976,3.02176 2.31031,3.34299 5.32151,3.18821 l 0.32822,-1.5064"
       style="fill:#1b1919;fill-opacity:1;fill-rule:evenodd;stroke:none;stroke-width:0.0353962"
       id="path110" />
    <path
       d="m 48.05131,517.78534 c 0.7661,0 1.39086,0.75802 1.39086,1.68731 0,0.92964 -0.62476,1.688 -1.39086,1.688 -0.76609,0 -1.39084,-0.75836 -1.39084,-1.688 0,-0.92929 0.62475,-1.68731 1.39084,-1.68731"
       style="fill:#1b1919;fill-opacity:1;fill-rule:evenodd;stroke:none;stroke-width:0.0353962"
       id="path112" />
    <path
       d="m 54.35313,522.36302 c 1.71362,0.0375 2.86294,-0.01 3.94742,-1.68181 -0.33514,3.02176 -1.61452,3.34299 -3.71828,3.18821 l -0.22914,-1.5064"
       style="fill:#1b1919;fill-opacity:1;fill-rule:evenodd;stroke:none;stroke-width:0.0353962"
       id="path114" />
    <path
       d="m 55.90245,517.78534 c 0.5355,0 0.97228,0.75802 0.97228,1.68731 0,0.92964 -0.43678,1.688 -0.97228,1.688 -0.53514,0 -0.97192,-0.75836 -0.97192,-1.688 0,-0.92929 0.43678,-1.68731 0.97192,-1.68731"
       style="fill:#1b1919;fill-opacity:1;fill-rule:evenodd;stroke:none;stroke-width:0.0353962"
       id="path116" />
    <path
       d="m 53.25553,514.2312 c -1.05024,0 -2.29355,0.75113 -2.29355,0.42681 0,-0.32501 0.42184,-2.2142 1.47245,-2.2142 1.04988,0 2.32999,1.88919 2.32999,2.2142 0,0.32432 -0.45901,-0.42681 -1.50889,-0.42681"
       style="fill:#ea6b4d;fill-opacity:1;fill-rule:evenodd;stroke:none;stroke-width:0.0353962"
       id="path118" />
    <g
       id="g882">
      <path
         d="m 160.83066,407.01352 h 9.80211 v 31.96233 h -9.80211 v -31.96233"
         style="fill:#5ca2a6;fill-opacity:1;fill-rule:evenodd;stroke:none;stroke-width:0.0379425"
         id="path124" />
      <path
         d="m 160.85897,430.03611 9.80168,0.0915 -0.0813,8.70947 -9.80168,-0.0915 0.0813,-8.70947"
         style="fill:#386f77;fill-opacity:1;fill-rule:evenodd;stroke:none;stroke-width:0.0443846"
         id="path126"
         inkscape:transform-center-y="1.3078586" />
    </g>
    <path
       d="m 210.95454,562.07168 h 31.50365 c 1.8531,0 3.36802,-1.86289 3.36802,-4.1397 v 0 c 0,-2.27725 -1.51492,-4.13926 -3.36802,-4.13926 h -31.50365 c -1.85203,0 -3.36766,1.86201 -3.36766,4.13926 v 0 c 0,2.27681 1.51563,4.1397 3.36766,4.1397"
       style="fill:#e1f5f7;fill-opacity:1;fill-rule:evenodd;stroke:none;stroke-width:0.0392595"
       id="path128" />
    <path
       d="m 36.720569,430.66298 2.469187,-3.8975 c 0.382174,-0.60288 0.190694,-1.42288 -0.445154,-1.90471 -0.636654,-0.48195 -1.515024,-0.47319 -2.042274,0.0201 l -4.61405,-1.88029 c -0.942046,-0.38391 -1.983342,-0.3222 -2.780581,0.1645 -1.969024,1.20489 -3.631265,2.78043 -4.891879,4.64019 -0.854643,1.25954 -1.438037,2.67734 -1.721188,4.18402 -0.229353,1.2147 0.350551,2.50891 1.476235,3.29441 1.124879,0.7854 2.58058,0.91235 3.705632,0.32311 l 5.047176,-2.41601 c 0.982007,-0.46997 2.082132,-0.72396 3.224709,-0.74422 0.444617,-0.008 0.816638,-0.26689 0.941675,-0.6566 0.125333,-0.38953 -0.02058,-0.8338 -0.369488,-1.12692"
       style="fill:#f5826b;fill-opacity:1;fill-rule:evenodd;stroke:none;stroke-width:0.035396"
       id="path122-2" />
    <path
       d="m 15.685103,405.61312 293.407767,0.0285 -2.43366,2.70879 -293.407775,-0.0285 2.433668,-2.70879"
       style="fill:#386f77;fill-opacity:1;fill-rule:evenodd;stroke:none;stroke-width:0.135429"
       id="path126-7"
       inkscape:transform-center-y="0.40674117"
       inkscape:transform-center-x="5.1997649e-06" />
  </g>
</svg>
